<svg width="100%" height="100%" xmlns="http://www.w3.org/2000/svg">
  <defs>
    <pattern id="bg-tile" width="100" height="100" patternUnits="userSpaceOnUse">
      <svg
        width="100"
        height="100"
        xmlns="http://www.w3.org/2000/svg"
        stroke="currentColor"
        class="background-tile"
      >
        <g transform="translate(0,0)">
          <svg width="24" height="24" viewBox="0 0 24 24" fill="none" stroke-width="2" stroke-linecap="round" stroke-linejoin="round" class="lucide lucide-music2-icon lucide-music-2">
            <circle cx="8" cy="18" r="4" />
            <path d="M12 18V2l7 4" />
          </svg>
        </g>


        <g transform="translate(0,50)">
          <svg width="24" height="24" viewBox="0 0 24 24" fill="none" stroke-width="2" stroke-linecap="round" stroke-linejoin="round" class="lucide lucide-music4-icon lucide-music-4">
            <path d="M9 18V5l12-2v13" />
            <path d="m9 9 12-2" />
            <circle cx="6" cy="18" r="3" />
            <circle cx="18" cy="16" r="3" />
          </svg>
        </g>

        <g transform="translate(50,10)">
          <svg width="24" height="24" viewBox="0 0 24 24" fill="none" stroke-width="2" stroke-linecap="round" stroke-linejoin="round" class="lucide lucide-music-icon lucide-music">
            <path d="M9 18V5l12-2v13" />
            <circle cx="6" cy="18" r="3" />
            <circle cx="18" cy="16" r="3" />
          </svg>
        </g>

        <g transform="translate(50,60)">
          <svg width="24" height="24" viewBox="0 0 24 24" fill="none" stroke-width="2" stroke-linecap="round" stroke-linejoin="round" class="lucide lucide-music3-icon lucide-music-3">
            <circle cx="12" cy="18" r="4" />
            <path d="M16 18V2" />
          </svg>
        </g>

      </svg>

    </pattern>
  </defs>
  <rect width="100%" height="100%" fill="url(#bg-tile)" />
</svg>
